<?xml version="1.0" encoding="utf-8"?>
<!-- Generator: Adobe Illustrator 26.0.3, SVG Export Plug-In . SVG Version: 6.00 Build 0)  -->
<svg version="1.1" xmlns="http://www.w3.org/2000/svg" xmlns:xlink="http://www.w3.org/1999/xlink" x="0px" y="0px"
	 viewBox="0 0 103 104" style="enable-background:new 0 0 103 104;" xml:space="preserve">
<style type="text/css">
	.st0{fill:none;stroke:#FCFCFC;stroke-width:5;stroke-miterlimit:10;}
	.st1{display:none;}
	.st2{display:inline;}
	.st3{fill:#FFFFFF;}
	.st4{display:inline;fill:#FFFFFF;}
	.st5{fill-rule:evenodd;clip-rule:evenodd;fill:#FFFFFF;}
</style>
<g id="ring">
	<circle class="st0" cx="51.5" cy="52" r="46"/>
</g>
<g id="muscle">
	<path class="st5" d="M63,74.6c-3.6-0.1-9.7,5.8-22.1,5c-6.6-0.4-15.4-1.5-20.4-6.2c-1.3-1.3-2.1-2.8-1.8-4.4
		c3.6-18.9,8.9-22.6,16.7-34.2c3.2-4.8,5.2-7.6,8.5-8.4c3.8-0.9,7.7-1.8,11.6-1.8h1.4c0.7,0,1.4,0.2,1.7,0.7l4,5.8
		c0.7,1-0.1,2.2-1.4,2.8c-0.6,0.7-1.7,1.1-3,1.2c-1.7,1-2.5,1-4.3,0.8c-2.1,0.5-2.7,0.5-3.9-1c-0.8,0.2-4.2,0.2-5.1,0.1
		c-0.5-0.1-0.7,0.3-1,0.8c-2.1,3.9-3.6,8.1-4.8,12.4c-0.4,1.5-0.3,2.9-0.4,4.1c0,2.1-0.2,4.1-0.5,6.2c6.8-6.8,14.6-7.4,21.8-1.1
		c-1.1-1.9-3.2-3.7-5.3-5c6.6-10.7,22.3-11.2,27.8,0.4c2.6,5.5,2.1,11.7-1.7,16.6C77.5,73.7,71.4,75,63,74.6L63,74.6z"/>
</g>
</svg>
