<?xml version="1.0" encoding="utf-8"?>
<!-- Generator: Adobe Illustrator 26.0.3, SVG Export Plug-In . SVG Version: 6.00 Build 0)  -->
<svg version="1.1" xmlns="http://www.w3.org/2000/svg" xmlns:xlink="http://www.w3.org/1999/xlink" x="0px" y="0px"
	 viewBox="0 0 103 104" style="enable-background:new 0 0 103 104;" xml:space="preserve">
<style type="text/css">
	.st0{fill:none;stroke:#FCFCFC;stroke-width:5;stroke-miterlimit:10;}
	.st1{display:none;}
	.st2{display:inline;}
	.st3{fill:#FFFFFF;}
	.st4{display:inline;fill-rule:evenodd;clip-rule:evenodd;fill:#C43535;}
</style>
<g id="ring">
	<circle class="st0" cx="51.5" cy="52" r="46"/>
</g>
<g id="fragnance">
	<path class="st3" d="M51.3,4.3C25,4.3,3.6,25.8,3.6,52.1S25,99.9,51.3,99.9c26.3,0,47.7-21.4,47.7-47.7S77.7,4.3,51.3,4.3z
		 M51.3,95.5C27.4,95.5,8,76,8,52.1c0-7.7,2-14.9,5.5-21.1l13.1,8.2c-2.3,1.6-4.8,3.4-6.5,6.2c-3.3,5.6-1.9,12.2,2.7,14.2
		c4.6,2,10.4-1.3,12.4-7.5c0.8-2.5,0.7-5,0.5-7.3c-0.2-2.1-0.6-4-0.7-5.7c-0.1-1.2,0-2.2,0.2-3.1l-0.6-0.3c4.7-6,11.7-7.3,16.5-7.4
		v2.1h-2.7V38h0.9c0,0-2.3,2.8-5,7.1c-0.7,1.2-1.5,2.5-2.2,3.8c-2.1,3.8-4,8.3-4.9,12.7C34.8,73.5,47,80,47,80h17.3
		c0,0,7.3-3.9,9.5-11.1L86.8,77C79,88.1,66,95.5,51.3,95.5z M56.5,27.2c0-0.7,0.6-1.3,1.3-1.3c0.7,0,1.3,0.6,1.3,1.3
		c0,0.7-0.6,1.3-1.3,1.3C57.1,28.4,56.5,27.9,56.5,27.2z M89.2,73.2l-14.7-9.2c0-0.8-0.1-1.6-0.3-2.4C71.9,49.8,62.2,38,62.2,38H63
		v-7.4h-2.7v-6.3h-9.2v2.3c-6.8,0.1-13.7,2.6-18.3,8.6l0,0l-0.7-0.3c-0.4,0.6-0.9,1.2-1.5,1.7l-14.7-9.2
		C23.7,16.1,36.7,8.8,51.3,8.8c23.9,0,43.3,19.4,43.3,43.4C94.7,59.8,92.7,67,89.2,73.2z"/>
</g>
</svg>
