<?xml version="1.0" encoding="utf-8"?>
<!-- Generator: Adobe Illustrator 26.0.3, SVG Export Plug-In . SVG Version: 6.00 Build 0)  -->
<svg version="1.1" id="Layer_1" xmlns="http://www.w3.org/2000/svg" xmlns:xlink="http://www.w3.org/1999/xlink" x="0px" y="0px"
	 viewBox="0 0 138 134" style="enable-background:new 0 0 138 134;" xml:space="preserve">
<style type="text/css">
	.st0{opacity:0.49;}
	.st1{fill:#1C75BC;stroke:#1C75BC;stroke-width:14.8238;stroke-linecap:round;stroke-miterlimit:10;}
	.st2{fill:#1C75BC;}
</style>
<g class="st0">
	<line class="st1" x1="68.2" y1="32" x2="68.2" y2="8.1"/>
	<line class="st1" x1="93.4" y1="41.3" x2="110.2" y2="24.5"/>
	<line class="st1" x1="124.6" y1="65.7" x2="128.4" y2="65.7"/>
	<line class="st1" x1="95.2" y1="90.9" x2="112" y2="107.7"/>
	<line class="st1" x1="70.8" y1="102" x2="70.8" y2="125.9"/>
	<line class="st1" x1="45.6" y1="92.7" x2="28.8" y2="109.5"/>
	<line class="st1" x1="14.8" y1="68.3" x2="10.6" y2="68.3"/>
	<line class="st1" x1="43.8" y1="43.1" x2="27" y2="26.3"/>
</g>
<g>
	<path class="st2" d="M28.3,59.3h7.3c4.3,0,6.8,2.5,6.8,6.2v0.1c0,4.1-3.2,6.3-7.2,6.3h-3v5.4h-3.9V59.3z M35.4,68.3
		c2,0,3.1-1.2,3.1-2.7v-0.1c0-1.8-1.2-2.7-3.2-2.7h-3v5.5H35.4z"/>
	<path class="st2" d="M42.6,68.3L42.6,68.3c0-5.1,4-9.3,9.5-9.3c5.5,0,9.5,4.1,9.5,9.2v0.1c0,5.1-4,9.2-9.5,9.2S42.6,73.4,42.6,68.3
		z M57.4,68.3L57.4,68.3c0-3.1-2.2-5.7-5.4-5.7c-3.2,0-5.4,2.5-5.4,5.6v0.1c0,3.1,2.2,5.6,5.4,5.6C55.3,73.9,57.4,71.4,57.4,68.3z"
		/>
	<path class="st2" d="M62.2,68.3L62.2,68.3c0-5.1,4-9.3,9.5-9.3c5.5,0,9.5,4.1,9.5,9.2v0.1c0,5.1-4,9.2-9.5,9.2S62.2,73.4,62.2,68.3
		z M77.1,68.3L77.1,68.3c0-3.1-2.2-5.7-5.4-5.7c-3.2,0-5.4,2.5-5.4,5.6v0.1c0,3.1,2.2,5.6,5.4,5.6C74.9,73.9,77.1,71.4,77.1,68.3z"
		/>
	<path class="st2" d="M82.7,59.3H90c4.3,0,6.8,2.5,6.8,6.2v0.1c0,4.1-3.2,6.3-7.2,6.3h-3v5.4h-3.9V59.3z M89.7,68.3
		c2,0,3.1-1.2,3.1-2.7v-0.1c0-1.8-1.2-2.7-3.2-2.7h-3v5.5H89.7z"/>
	<path class="st2" d="M97.7,59.3h3.9v7.1h7.3v-7.1h3.9v17.9h-3.9V70h-7.3v7.2h-3.9V59.3z"/>
</g>
<g>
	<path class="st2" d="M115.1,61.1h-0.4v-1.5h-0.6v-0.4h1.6v0.4h-0.6V61.1z M117.1,60.7L117.1,60.7l-0.6-0.8v1.3h-0.4v-1.9h0.5
		l0.5,0.8l0.5-0.8h0.4v1.9h-0.4v-1.3L117.1,60.7z"/>
</g>
</svg>
