<?xml version="1.0" encoding="utf-8"?>
<!-- Generator: Adobe Illustrator 26.0.3, SVG Export Plug-In . SVG Version: 6.00 Build 0)  -->
<svg version="1.1" xmlns="http://www.w3.org/2000/svg" xmlns:xlink="http://www.w3.org/1999/xlink" x="0px" y="0px"
	 viewBox="0 0 103 104" style="enable-background:new 0 0 103 104;" xml:space="preserve">
<style type="text/css">
	.st0{fill:none;stroke:#FCFCFC;stroke-width:5;stroke-miterlimit:10;}
	.st1{fill:#FFFFFF;}
	.st2{display:none;}
	.st3{display:inline;fill:#AA1A1A;}
	.st4{display:inline;fill-rule:evenodd;clip-rule:evenodd;fill:#C43535;}
</style>
<g id="ring">
	<circle class="st0" cx="51.5" cy="52" r="46"/>
</g>
<g id="plant">
	<g>
		<path class="st1" d="M41.3,74.3c-1.5-4.7-3.8-9.2-5.6-12.5c-1.8-3.3-3.3-5.4-3.3-5.4s1.8,1.8,4.3,4.7c2.5,2.9,5.6,7,8.2,11.6
			c1.3,2.3,2.5,4.7,3.3,7.2c0,0.1,0,0.1,0,0.2c1.4-1.9,3-4.7,3.5-8.1c1.4-7-1.2-12.3-9.4-15.6c-9.3-3.7-15.1-6.7-16.5-8
			c0.5,1.2,1.3,5,0.9,13.5c-0.3,8.2,1.8,15.3,6.9,18.3c2.9,2.1,6.9,2.6,9.5,2.7c0-0.5-0.1-1.1-0.2-1.7
			C42.7,78.9,42.1,76.6,41.3,74.3z"/>
		<g>
			<path class="st1" d="M75.4,21.2c-2,2.4-15.2,6.9-29.3,16.8c-5.7,4-7.7,9.1-8.3,12.7c2.3,1.1,10.7,3.1,14.8,9.5
				c2.6-5.1,5.2-12.8,7.6-16.4c3.5-5.2,6.1-8.4,6.1-8.4s-1.9,3.7-4.3,9.4c-2.4,5.7-5.2,13.4-6.8,21.2c-0.8,3.9-1.3,7.8-1.4,11.3
				c0,0.9,0,1.9,0,2.7c4.2-0.7,10.5-2.2,14.8-6.1c7.7-5.8,9.9-17.6,7.8-30.8C74.3,29.5,74.8,23.3,75.4,21.2z"/>
		</g>
	</g>
</g>
<g id="muscle" class="st2">
	<path class="st4" d="M63,74.6c-3.6-0.1-9.7,5.8-22.1,5c-6.6-0.4-15.4-1.5-20.4-6.2c-1.3-1.3-2.1-2.8-1.8-4.4
		c3.6-18.9,8.9-22.6,16.7-34.2c3.2-4.8,5.2-7.6,8.5-8.4c3.8-0.9,7.7-1.8,11.6-1.8h1.4c0.7,0,1.4,0.2,1.7,0.7l4,5.8
		c0.7,1-0.1,2.2-1.4,2.8c-0.6,0.7-1.7,1.1-3,1.2c-1.7,1-2.5,1-4.3,0.8c-2.1,0.5-2.7,0.5-3.9-1c-0.8,0.2-4.2,0.2-5.1,0.1
		c-0.5-0.1-0.7,0.3-1,0.8c-2.1,3.9-3.6,8.1-4.8,12.4c-0.4,1.5-0.3,2.9-0.4,4.1c0,2.1-0.2,4.1-0.5,6.2c6.8-6.8,14.6-7.4,21.8-1.1
		c-1.1-1.9-3.2-3.7-5.3-5c6.6-10.7,22.3-11.2,27.8,0.4c2.6,5.5,2.1,11.7-1.7,16.6C77.5,73.7,71.4,75,63,74.6L63,74.6z"/>
</g>
</svg>
