<?xml version="1.0" encoding="utf-8"?>
<!-- Generator: Adobe Illustrator 26.0.1, SVG Export Plug-In . SVG Version: 6.00 Build 0)  -->
<svg version="1.1" xmlns="http://www.w3.org/2000/svg" xmlns:xlink="http://www.w3.org/1999/xlink" x="0px" y="0px"
	 viewBox="0 0 137 26" style="enable-background:new 0 0 137 26;" xml:space="preserve">
<style type="text/css">
	.st0{enable-background:new    ;}
	.st1{fill:#16bdc1;}
</style>
<g id="Polygon_1_00000093175715854257987490000014747444396437333404_" class="st0">
	<g id="Polygon_1">
		<g>
			<polygon class="st1" points="26.8,10.4 16.8,10.2 13.5,0.8 10.2,10.2 0.3,10.4 8.2,16.5 5.3,26 13.5,20.4 21.7,26 18.9,16.5 			
				"/>
		</g>
	</g>
</g>
<g id="Polygon_1_copy_00000124874107783625033930000009117164456982664100_" class="st0">
	<g id="Polygon_1_copy">
		<g>
			<polygon class="st1" points="54.2,10.4 44.3,10.2 41,0.8 37.7,10.2 27.8,10.4 35.6,16.5 32.8,26 41,20.4 49.2,26 46.3,16.5 			
				"/>
		</g>
	</g>
</g>
<g id="Polygon_1_copy_2_00000021078932812437986190000008371317474746661518_" class="st0">
	<g id="Polygon_1_copy_2">
		<g>
			<polygon class="st1" points="81.7,10.4 71.8,10.2 68.5,0.8 65.2,10.2 55.2,10.4 63.1,16.5 60.3,26 68.5,20.4 76.7,26 73.8,16.5 
							"/>
		</g>
	</g>
</g>
<g id="Polygon_1_copy_3_00000144308454749584280440000002715350512321851580_" class="st0">
	<g id="Polygon_1_copy_3">
		<g>
			<polygon class="st1" points="109.2,10.4 99.3,10.2 96,0.8 92.7,10.2 82.7,10.4 90.6,16.5 87.8,26 96,20.4 104.2,26 101.3,16.5 
							"/>
		</g>
	</g>
</g>
<g id="Polygon_1_copy_4_00000037659179161726853480000009940891518417989053_" class="st0">
	<g id="Polygon_1_copy_4">
		<g>
			<polygon class="st1" points="136.7,10.4 126.8,10.2 123.5,0.8 120.1,10.2 110.2,10.4 118.1,16.5 115.3,26 123.5,20.4 131.6,26 
				128.8,16.5 			"/>
		</g>
	</g>
</g>
</svg>
