<?xml version="1.0" standalone="no"?>
<!DOCTYPE svg PUBLIC "-//W3C//DTD SVG 20010904//EN"
 "http://www.w3.org/TR/2001/REC-SVG-20010904/DTD/svg10.dtd">
<svg version="1.0" xmlns="http://www.w3.org/2000/svg"
 width="110.000000pt" height="110.000000pt" viewBox="0 0 110.000000 110.000000"
 preserveAspectRatio="xMidYMid meet">
<metadata>
Created by potrace 1.14, written by Peter Selinger 2001-2017
</metadata>
<g transform="translate(0.000000,110.000000) scale(0.100000,-0.100000)"
fill="#000000" stroke="none">
<path d="M464 1086 c-4 -9 -4 -28 -1 -42 3 -17 1 -22 -5 -16 -12 12 -38 5 -38
-10 0 -7 5 -6 14 1 10 9 15 8 19 -3 4 -9 2 -18 -3 -21 -5 -3 -7 -13 -4 -23 5
-14 4 -14 -4 -2 -8 10 -8 18 -1 27 8 9 5 11 -9 10 -13 -1 -19 -8 -19 -24 0
-13 4 -20 10 -16 6 4 7 1 2 -6 -5 -9 -11 -9 -17 -3 -7 7 -17 7 -29 1 -11 -5
-28 -13 -38 -18 -10 -6 -22 -7 -25 -3 -4 3 -15 7 -26 9 -13 2 -18 -2 -14 -11
3 -8 12 -12 19 -10 7 3 16 1 20 -5 16 -27 -36 -1 -79 39 -67 63 -95 79 -134
78 -21 -1 -28 -4 -20 -9 9 -6 7 -9 -8 -9 -32 0 -40 -44 -17 -87 10 -19 23 -31
31 -28 7 3 10 0 7 -5 -4 -6 12 -30 34 -53 38 -39 40 -43 24 -55 -10 -7 -17
-15 -16 -17 1 -3 0 -12 -4 -22 -4 -9 -1 -19 5 -21 7 -2 12 -9 12 -15 -1 -7
-10 -1 -21 12 -15 19 -17 26 -7 32 9 6 8 9 -6 9 -20 0 -13 15 7 15 7 1 11 6 9
13 -1 7 4 12 10 12 7 0 5 5 -4 11 -13 7 -23 7 -35 -1 -15 -9 -14 -10 7 -4 21
6 23 5 12 -8 -7 -9 -24 -14 -40 -12 -20 3 -22 2 -7 -4 11 -4 21 -14 23 -22 2
-8 11 -30 19 -48 9 -18 13 -36 9 -39 -3 -3 -6 1 -6 11 0 9 -5 14 -10 11 -6 -4
-8 -11 -4 -16 3 -5 0 -17 -8 -26 -11 -15 -11 -16 7 -9 15 5 17 4 8 -5 -12 -12
-37 -3 -28 11 3 5 0 12 -5 15 -7 5 -5 12 7 22 10 8 12 12 5 8 -14 -7 -12 16 2
27 11 8 -11 38 -27 38 -6 0 -3 -6 8 -13 12 -10 14 -16 7 -21 -7 -4 -12 -2 -12
5 0 7 -3 9 -6 6 -4 -4 -1 -13 5 -21 10 -12 8 -16 -9 -21 l-22 -7 21 -15 c12
-8 19 -19 15 -24 -3 -6 -11 -3 -18 7 -10 13 -15 14 -21 4 -5 -9 -4 -11 3 -6 7
4 12 2 12 -3 0 -6 -8 -11 -17 -11 -15 0 -16 -2 -3 -10 10 -6 16 -6 18 0 2 6 8
7 14 4 5 -3 2 -14 -8 -25 -12 -13 -21 -16 -34 -9 -15 8 -17 1 -18 -66 -1 -41
2 -74 7 -74 23 0 56 40 57 69 1 17 -3 31 -7 31 -5 0 -9 10 -9 22 0 12 3 18 8
14 4 -4 7 -13 7 -18 0 -6 7 -13 15 -15 13 -4 13 -3 0 6 -18 13 -1 14 19 2 11
-7 9 -10 -8 -16 -12 -3 -19 -11 -15 -16 3 -5 9 -7 14 -4 5 3 12 0 16 -6 4 -8
3 -9 -4 -5 -7 4 -12 4 -13 -1 0 -4 -2 -16 -4 -25 -2 -10 1 -18 6 -18 5 0 9 -5
9 -11 0 -8 -6 -7 -17 2 -15 12 -16 12 -10 -3 7 -21 -3 -24 -21 -6 -9 9 -13 7
-18 -6 -4 -11 2 -26 17 -42 l24 -26 -30 7 -30 6 25 -13 c14 -7 25 -20 25 -28
-1 -8 10 -27 24 -43 18 -20 22 -30 14 -38 -9 -9 -6 -18 11 -36 l23 -24 -30
-32 c-16 -17 -33 -42 -38 -55 -9 -24 -11 -77 -2 -54 2 6 9 10 14 6 5 -3 9 0 9
5 0 6 -4 11 -10 11 -5 0 -10 5 -10 10 0 6 8 5 19 -2 11 -7 18 -15 15 -19 -2
-4 1 -9 8 -12 7 -2 5 -3 -4 -2 -23 4 -34 -14 -18 -28 10 -9 11 -9 6 1 -4 6 -2
12 3 12 6 0 11 -4 11 -10 0 -5 9 -10 20 -10 25 0 70 21 70 33 0 5 7 6 16 3 8
-3 12 -2 9 4 -9 14 58 70 71 59 11 -9 24 -2 24 13 0 5 -4 6 -10 3 -15 -9 -12
1 4 14 12 10 14 8 12 -14 -3 -20 0 -24 15 -20 9 3 20 1 24 -5 4 -6 1 -11 -6
-9 -25 3 -42 -1 -35 -8 11 -12 45 -13 51 -3 4 6 11 7 17 4 8 -5 9 -1 4 12 -4
10 -4 15 0 11 4 -4 12 -2 19 3 8 7 12 5 12 -5 0 -8 -3 -13 -5 -10 -5 5 -31
-25 -32 -37 0 -5 18 -7 40 -6 21 1 37 4 35 8 -2 3 1 12 7 20 8 13 9 12 5 -2
-3 -9 -3 -19 1 -23 4 -4 8 -20 8 -36 1 -16 2 -35 3 -43 1 -12 16 -14 74 -12
39 2 74 5 77 6 3 1 10 2 15 1 6 -1 2 5 -7 12 -16 13 -16 15 10 28 44 22 45 22
38 10 -4 -6 -2 -11 4 -11 7 0 9 7 6 16 -3 9 -6 18 -6 21 0 3 -8 -1 -17 -8 -14
-12 -16 -12 -8 0 5 10 4 12 -4 7 -6 -4 -9 -11 -6 -16 3 -4 -1 -10 -8 -13 -8
-3 -13 3 -13 18 0 16 4 21 16 17 12 -4 13 -2 3 9 -18 18 -16 25 7 26 11 1 20
-3 20 -8 0 -6 5 -7 10 -4 8 5 7 12 -2 23 -10 14 -10 15 2 4 19 -16 30 -15 30
3 0 8 4 15 8 15 5 0 8 -10 7 -22 -1 -15 -8 -22 -18 -20 -24 4 -30 -16 -11 -40
10 -14 14 -16 11 -6 -3 9 1 22 10 30 14 11 15 10 9 -12 l-8 -25 17 23 c13 18
20 20 30 12 17 -14 38 -3 31 15 -3 8 1 19 9 25 10 8 17 6 29 -12 9 -12 16 -17
16 -11 0 7 -5 15 -10 18 -6 4 -8 10 -5 15 3 5 23 -9 43 -30 40 -42 84 -62 116
-50 17 6 18 7 3 13 -11 4 -14 12 -10 23 4 11 2 15 -4 11 -5 -4 -15 5 -21 18
-9 20 -9 23 3 18 8 -3 13 -9 10 -13 -3 -4 2 -11 11 -14 22 -9 26 -8 18 6 -4 6
-3 8 3 5 6 -4 14 1 18 10 3 10 1 19 -4 21 -6 2 -9 8 -6 12 7 12 -44 62 -56 55
-5 -3 -6 1 -3 10 4 9 13 14 20 11 7 -3 16 -1 19 4 3 4 -6 7 -20 5 -20 -2 -32
6 -49 31 -12 19 -26 31 -31 26 -5 -4 -5 -2 -1 5 4 7 13 10 21 6 8 -3 15 -1 15
5 0 6 -6 12 -12 15 -7 2 -11 7 -8 10 3 3 14 -1 25 -9 13 -9 16 -17 9 -22 -7
-5 -6 -15 3 -32 11 -22 13 -23 14 -5 1 11 1 28 1 38 -2 14 2 16 17 7 11 -5 23
-10 28 -10 4 1 -4 8 -19 16 -16 8 -28 22 -28 30 0 8 -5 12 -10 9 -8 -5 -7 -12
1 -23 10 -13 9 -13 -7 1 -16 15 -17 19 -4 27 16 10 43 -7 34 -21 -3 -5 0 -9 5
-9 6 0 11 4 11 9 0 4 10 19 23 32 l22 24 -23 23 c-21 21 -23 21 -17 3 4 -13 0
-23 -12 -30 -10 -6 -13 -11 -6 -11 6 0 15 5 18 10 3 6 10 10 16 10 5 0 4 -8
-2 -18 -19 -30 -45 -23 -40 11 2 12 -17 8 -21 -5 -3 -8 -6 -7 -10 4 -5 11 0
15 20 14 25 -1 27 2 26 40 0 28 3 41 12 40 7 0 12 4 11 9 -1 6 -7 9 -14 7 -6
-1 -11 6 -10 18 1 11 5 20 10 20 6 0 6 5 0 13 -5 6 -9 21 -9 32 1 27 -13 35
-41 24 -16 -6 -22 -5 -18 1 3 6 13 10 21 10 8 0 13 4 10 9 -3 5 2 15 11 22 12
10 14 10 9 2 -4 -8 -2 -13 6 -13 11 0 10 -2 0 -9 -11 -7 -10 -9 3 -15 9 -3 14
-10 10 -15 -3 -5 0 -13 6 -17 8 -5 8 -9 -1 -14 -9 -6 -6 -10 9 -15 12 -3 19
-11 15 -16 -3 -5 -9 -7 -14 -4 -4 3 -10 -1 -13 -9 -4 -9 0 -12 11 -10 11 3 21
-5 29 -22 10 -21 10 -25 -2 -20 -8 3 -17 1 -20 -5 -4 -5 -11 -7 -16 -4 -19 12
-8 -7 17 -30 32 -29 31 -29 31 -10 0 8 -3 13 -6 11 -3 -2 -12 2 -18 10 -15 15
-8 21 28 19 23 -1 26 3 27 32 1 26 -2 31 -16 26 -14 -5 -14 -3 2 9 19 15 14
44 -6 32 -7 -4 -8 -2 -4 5 4 6 12 9 17 6 5 -4 9 6 9 22 -1 25 -2 26 -14 11 -7
-10 -16 -15 -20 -11 -4 4 -9 -3 -13 -15 -6 -26 -23 -30 -18 -4 2 9 4 17 5 17
1 0 3 15 5 34 2 22 0 29 -6 20 -5 -8 -6 -23 -2 -34 5 -18 4 -18 -11 -6 -9 8
-14 16 -11 19 3 3 -1 15 -9 28 -8 12 -12 25 -8 28 3 4 12 -4 19 -16 12 -21 13
-21 11 -3 -2 11 -12 26 -22 34 -18 14 -18 15 -1 28 11 7 14 13 8 13 -14 0 -34
-25 -26 -33 3 -4 1 -7 -5 -7 -15 0 -15 23 0 38 8 8 5 16 -13 31 -20 18 -22 22
-9 31 8 5 11 10 5 10 -5 0 -14 -4 -20 -8 -13 -9 -19 -35 -7 -28 5 3 17 -3 27
-14 16 -18 13 -22 -12 -19 -3 0 -10 -7 -15 -16 -7 -12 -13 -13 -23 -5 -8 6
-12 17 -9 25 3 7 0 16 -6 20 -8 5 -5 12 9 22 12 8 21 21 21 29 0 8 5 12 10 9
6 -3 10 -3 10 2 0 4 13 22 29 38 58 63 73 117 41 148 -18 16 -21 14 -19 -10 0
-5 7 -7 15 -5 17 4 18 -10 2 -26 -9 -9 -9 -12 0 -12 10 0 10 -4 0 -19 -7 -11
-16 -17 -22 -14 -6 4 -7 -1 -2 -13 6 -16 5 -17 -6 -6 -11 11 -10 16 6 28 11 7
17 17 13 20 -9 9 -48 -21 -39 -31 4 -5 1 -5 -6 -1 -7 5 -11 11 -8 14 3 3 1 11
-5 18 -9 11 -6 16 12 22 17 7 19 11 9 17 -9 5 -20 0 -32 -15 -10 -12 -22 -20
-26 -16 -4 4 1 12 11 17 9 6 14 16 11 22 -4 7 -4 9 1 5 4 -4 17 -3 28 3 15 9
18 8 12 -2 -5 -8 -4 -10 3 -5 23 14 11 26 -20 21 -18 -3 -41 -15 -50 -26 -10
-12 -18 -18 -18 -14 0 4 -12 -4 -26 -18 -14 -14 -23 -30 -21 -34 9 -14 -39 -9
-56 6 -10 7 -17 10 -17 7 0 -4 -11 5 -24 21 -17 19 -21 30 -13 35 8 5 6 8 -5
8 -20 0 -24 -15 -8 -25 6 -3 10 -12 10 -18 -1 -7 -9 -2 -19 11 -13 15 -21 18
-24 10 -2 -7 -8 -9 -13 -5 -5 5 -1 14 8 21 16 12 15 14 -10 25 -22 9 -24 9
-11 -2 14 -10 15 -16 4 -30 -14 -20 -26 -12 -18 11 4 10 3 14 -1 11 -10 -9
-16 -50 -6 -44 5 3 11 1 15 -5 4 -6 11 -8 16 -5 15 10 31 -5 20 -18 -5 -7 -9
-16 -9 -22 0 -5 -6 -11 -14 -13 -9 -3 -10 -1 -1 5 8 6 8 13 -2 26 -17 23 -27
23 -37 0 -7 -15 -8 -14 -4 4 2 13 1 25 -3 27 -4 3 -6 24 -6 49 1 42 0 44 -29
43 -17 -1 -37 -5 -45 -10 -10 -6 -12 -6 -7 2 5 8 -1 12 -14 12 -12 0 -19 -4
-15 -9 3 -5 1 -13 -5 -16 -6 -4 -9 -1 -8 6 5 18 -21 23 -28 5z m-354 -65 c0
-5 -9 -13 -20 -16 -11 -4 -18 -11 -15 -16 4 -5 13 -5 23 0 20 10 42 4 42 -11
0 -7 -4 -7 -13 0 -8 7 -18 7 -27 2 -9 -6 -20 -4 -29 3 -12 10 -14 9 -8 -5 19
-47 19 -52 3 -30 -10 12 -15 30 -12 40 5 14 14 21 54 41 1 0 2 -3 2 -8z m30
-1 c0 -5 -4 -10 -10 -10 -5 0 -10 5 -10 10 0 6 5 10 10 10 6 0 10 -4 10 -10z
m594 -33 c4 4 12 0 17 -10 6 -9 14 -15 18 -12 5 2 16 -4 26 -15 18 -19 17 -20
-8 -18 -14 1 -23 6 -21 10 3 4 0 8 -5 8 -6 0 -11 -7 -11 -15 0 -8 -2 -15 -4
-15 -2 0 -13 -3 -23 -6 -17 -6 -17 -6 1 8 12 9 16 20 11 28 -5 9 -4 11 3 6 7
-4 12 -2 12 3 0 6 -8 11 -19 11 -11 0 -18 -6 -17 -16 0 -9 -6 -19 -14 -21 -10
-3 -11 -2 -4 4 14 10 14 44 0 63 -7 10 -3 9 10 -3 11 -9 24 -14 28 -10z m-543
-4 c13 -16 12 -17 -3 -4 -10 7 -18 15 -18 17 0 8 8 3 21 -13z m-25 -28 c-1
-13 -4 -27 -7 -30 -5 -4 -4 41 0 53 4 10 8 -2 7 -23z m-41 5 c4 -6 -1 -7 -11
-3 -10 4 -15 2 -11 -3 3 -6 1 -16 -4 -24 -7 -11 -8 -8 -5 10 3 14 5 26 5 28 2
6 21 1 26 -8z m516 -13 c-10 -9 -11 -8 -5 6 3 10 9 15 12 12 3 -3 0 -11 -7
-18z m259 -2 c0 -2 -6 -8 -13 -14 -10 -8 -14 -7 -14 2 0 8 6 14 14 14 7 0 13
-1 13 -2z m50 -3 c0 -4 -9 -8 -20 -9 -11 -1 -20 2 -20 5 0 4 9 8 20 9 11 1 20
-2 20 -5z m-570 -16 c0 -2 -11 -6 -25 -8 -13 -3 -22 -1 -19 3 5 9 44 13 44 5z
m46 -8 c3 -4 -1 -5 -10 -4 -8 1 -18 5 -22 8 -3 4 1 5 10 4 8 -1 18 -5 22 -8z
m-246 -12 c0 -2 -8 -10 -17 -17 -16 -13 -17 -12 -4 4 13 16 21 21 21 13z m10
-126 c0 -5 -4 -10 -10 -10 -5 0 -10 5 -10 10 0 6 5 10 10 10 6 0 10 -4 10 -10z
m-23 -35 c0 -8 -4 -12 -9 -9 -4 3 -8 9 -8 15 0 5 4 9 8 9 5 0 9 -7 9 -15z
m823 -23 c12 11 12 10 1 -4 -7 -10 -10 -18 -5 -18 5 0 1 -5 -9 -11 -10 -6 -21
-8 -24 -5 -4 3 -1 6 5 6 7 0 12 5 12 11 0 5 -4 8 -9 5 -5 -3 -8 6 -8 21 0 26
0 26 11 5 10 -18 14 -20 26 -10z m-53 2 c-3 -3 -12 -4 -19 -1 -8 3 -5 6 6 6
11 1 17 -2 13 -5z m18 -62 c-3 -3 -11 0 -18 7 -9 10 -8 11 6 5 10 -3 15 -9 12
-12z m-865 -47 c0 -8 -4 -15 -9 -15 -13 0 -22 16 -14 24 11 11 23 6 23 -9z
m25 -15 c3 -5 1 -10 -4 -10 -6 0 -11 5 -11 10 0 6 2 10 4 10 3 0 8 -4 11 -10z
m-92 -85 c4 -8 3 -16 -1 -19 -4 -3 -9 4 -9 15 -2 23 3 25 10 4z m112 -87 c5 4
5 2 1 -5 -4 -7 -14 -9 -22 -6 -14 5 -15 3 -4 -17 9 -16 9 -25 1 -33 -6 -6 -11
-18 -11 -26 0 -10 8 -4 20 14 11 17 20 26 20 22 0 -4 -7 -19 -16 -32 l-16 -24
44 4 c41 3 42 2 15 -9 -26 -12 -29 -30 -2 -20 7 3 16 1 20 -5 4 -7 0 -8 -10
-5 -9 4 -15 3 -13 -2 2 -5 -2 -9 -7 -9 -5 0 -9 3 -8 6 1 3 -4 6 -12 6 -11 0
-10 -5 2 -24 9 -14 11 -23 5 -23 -18 0 -36 40 -24 52 7 7 2 18 -17 34 -24 20
-41 61 -19 48 4 -3 8 0 8 5 0 6 -5 11 -12 11 -6 0 -8 3 -5 6 3 4 -3 18 -13 32
-31 39 -24 44 24 17 24 -13 47 -21 51 -17z m812 -21 c-1 -5 -11 -11 -20 -13
-9 -1 -15 2 -11 7 3 5 10 6 16 3 8 -5 9 -1 5 10 -4 11 -3 15 4 11 5 -4 8 -12
6 -18z m-797 -7 c0 -5 -5 -10 -11 -10 -5 0 -7 5 -4 10 3 6 8 10 11 10 2 0 4
-4 4 -10z m17 -25 c0 -8 -4 -12 -9 -9 -5 3 -6 10 -3 15 9 13 12 11 12 -6z m0
-31 c-3 -3 -12 -4 -19 -1 -8 3 -5 6 6 6 11 1 17 -2 13 -5z m234 -171 c13 -16
12 -17 -3 -4 -17 13 -22 21 -14 21 2 0 10 -8 17 -17z m369 2 c0 -2 -9 -3 -19
-2 -11 0 -18 5 -15 9 4 6 34 0 34 -7z m67 -1 c14 -14 17 -25 6 -22 -5 2 -18
-5 -31 -14 -16 -11 -19 -17 -10 -21 7 -2 9 -8 5 -13 -11 -11 -27 15 -20 33 3
7 10 10 16 6 6 -3 7 -1 3 5 -7 11 -36 6 -34 -6 2 -18 -3 -32 -11 -32 -15 0 0
40 20 54 10 7 17 15 14 18 -3 2 3 5 12 5 10 0 23 -6 30 -13z m-705 -16 c-9 -9
-7 -14 6 -25 16 -12 16 -13 -2 -6 -14 5 -17 3 -11 -7 5 -9 4 -11 -4 -6 -6 4
-8 12 -5 18 5 8 1 9 -12 5 -14 -5 -12 -2 6 13 28 22 41 27 22 8z m898 0 c0
-11 -12 -10 -30 2 -12 7 -10 9 8 7 12 0 22 -5 22 -9z m-862 -23 c-3 -3 -9 2
-12 12 -6 14 -5 15 5 6 7 -7 10 -15 7 -18z m288 -14 c-6 -9 -46 -22 -46 -15 0
3 10 9 23 14 29 11 29 11 23 1z m-309 -33 c-3 -8 -6 -5 -6 6 -1 11 2 17 5 13
3 -3 4 -12 1 -19z m842 0 c14 -23 14 -23 -8 -4 -14 13 -21 15 -21 6 0 -7 -3
-11 -6 -7 -7 7 4 27 14 27 4 0 13 -10 21 -22z m-828 -21 c-10 -9 -11 -8 -5 6
3 10 9 15 12 12 3 -3 0 -11 -7 -18z"/>
<path d="M82 409 c19 -25 19 -30 7 -46 -13 -17 -13 -17 4 -4 11 9 15 21 11 30
-3 9 -7 22 -8 30 -2 8 -10 15 -19 17 -13 2 -13 -3 5 -27z"/>
<path d="M806 171 c-4 -5 -2 -12 3 -15 5 -4 12 -2 15 3 4 5 2 12 -3 15 -5 4
-12 2 -15 -3z"/>
<path d="M417 1056 c-4 -10 -1 -13 8 -9 8 3 12 9 9 14 -7 12 -11 11 -17 -5z"/>
<path d="M380 1024 c-12 -22 -16 -24 -26 -10 -6 9 -15 16 -20 16 -4 0 -3 -5 4
-12 16 -16 16 -33 0 -21 -11 8 -23 9 -43 4 -3 0 2 -15 11 -33 15 -28 18 -30
29 -15 6 9 14 14 17 11 3 -2 17 1 32 7 18 9 23 15 14 20 -9 6 -9 11 0 21 6 8
7 19 3 26 -5 9 -12 5 -21 -14z m-43 -41 c5 -14 -25 -12 -31 3 -3 7 2 11 12 10
9 -2 17 -7 19 -13z m49 5 c4 -7 4 -10 -1 -6 -4 4 -14 3 -22 -3 -8 -8 -13 -8
-13 -1 0 6 6 13 13 15 6 3 13 6 14 6 1 1 5 -5 9 -11z"/>
<path d="M753 1025 c0 -8 4 -15 9 -15 4 0 8 4 8 9 0 6 -4 12 -8 15 -5 3 -9 -1
-9 -9z"/>
<path d="M981 1024 c4 -23 -2 -33 -18 -27 -11 4 -14 3 -9 -5 10 -16 17 -15 41
6 11 9 18 16 16 15 -2 -2 -10 2 -18 9 -8 6 -13 7 -12 2z"/>
<path d="M774 999 c-4 -8 -3 -9 4 -5 7 4 12 2 12 -3 0 -6 7 -11 16 -11 9 0 12
-5 8 -12 -4 -7 -3 -9 1 -5 12 11 15 38 4 31 -6 -3 -16 -1 -24 6 -10 8 -15 8
-21 -1z"/>
<path d="M274 988 c3 -10 -2 -22 -12 -27 -9 -6 -12 -11 -6 -11 20 0 34 24 22
40 -8 12 -9 12 -4 -2z"/>
<path d="M670 979 c0 -5 5 -7 10 -4 6 3 10 8 10 11 0 2 -4 4 -10 4 -5 0 -10
-5 -10 -11z"/>
<path d="M93 845 c0 -8 4 -12 9 -9 5 3 6 10 3 15 -9 13 -12 11 -12 -6z"/>
<path d="M960 856 c0 -2 7 -7 16 -10 8 -3 12 -2 9 4 -6 10 -25 14 -25 6z"/>
<path d="M997 815 c-4 -8 -3 -16 1 -19 4 -3 9 4 9 15 2 23 -3 25 -10 4z"/>
<path d="M917 813 c-4 -7 -2 -42 2 -63 1 -3 6 3 12 13 6 9 16 15 22 11 7 -3 3
2 -8 11 -11 9 -19 21 -17 26 2 11 -5 12 -11 2z"/>
<path d="M1016 741 c8 -8 43 -8 38 0 -2 4 -13 7 -24 6 -10 -1 -17 -3 -14 -6z"/>
<path d="M14 709 c-3 -6 -2 -15 3 -20 5 -5 9 -1 9 11 0 23 -2 24 -12 9z"/>
<path d="M59 493 c-13 -16 -12 -17 4 -4 9 7 17 15 17 17 0 8 -8 3 -21 -13z"/>
<path d="M33 372 c0 -12 5 -22 9 -22 11 0 10 12 -2 30 -7 12 -9 10 -7 -8z"/>
<path d="M1026 363 c-6 -14 -5 -15 5 -6 7 7 10 15 7 18 -3 3 -9 -2 -12 -12z"/>
<path d="M1001 313 c-1 -17 16 -25 25 -12 4 7 3 9 -4 5 -5 -3 -13 0 -15 6 -4
9 -6 10 -6 1z"/>
<path d="M73 295 c0 -8 4 -12 9 -9 4 3 8 9 8 15 0 5 -4 9 -8 9 -5 0 -9 -7 -9
-15z"/>
<path d="M95 229 c-4 -6 -5 -12 -2 -15 2 -3 7 2 10 11 7 17 1 20 -8 4z"/>
<path d="M284 143 c4 -7 2 -13 -3 -13 -6 0 -11 -5 -11 -11 0 -5 4 -7 10 -4 5
3 9 -2 7 -12 -1 -10 1 -18 4 -18 3 0 14 -7 25 -15 18 -14 18 -14 5 2 -7 10
-17 15 -22 12 -10 -6 -12 9 -2 19 3 4 17 -3 29 -14 20 -19 26 -20 40 -8 15 12
16 12 10 -9 -5 -14 -3 -22 4 -22 6 0 8 5 5 10 -9 14 9 12 23 -2 10 -10 15 -10
22 2 7 10 10 11 10 3 0 -19 18 -16 29 5 8 16 6 18 -12 16 -12 -1 -22 -3 -22
-4 0 -1 -8 -3 -17 -5 -21 -4 -42 20 -33 37 4 7 0 5 -8 -4 -11 -14 -16 -15 -27
-5 -10 9 -11 9 -6 0 10 -18 -9 -16 -24 2 -6 8 -8 20 -4 27 4 7 4 10 -1 6 -4
-4 -15 -2 -23 5 -13 9 -14 9 -8 0z"/>
<path d="M1030 114 c-13 -13 -20 -24 -14 -24 17 0 47 26 43 37 -2 5 -15 -1
-29 -13z"/>
<path d="M830 120 c0 -5 5 -10 11 -10 5 0 7 5 4 10 -3 6 -8 10 -11 10 -2 0 -4
-4 -4 -10z"/>
<path d="M670 111 c0 -5 5 -13 10 -16 6 -3 10 -2 10 4 0 5 -4 13 -10 16 -5 3
-10 2 -10 -4z"/>
<path d="M775 80 c3 -5 2 -10 -3 -10 -6 0 -13 -8 -16 -17 -6 -15 -5 -15 13 1
18 16 20 36 5 36 -3 0 -2 -4 1 -10z"/>
<path d="M330 45 c0 -5 5 -17 10 -25 5 -8 10 -10 10 -5 0 6 -5 17 -10 25 -5 8
-10 11 -10 5z"/>
<path d="M465 40 c-4 -6 -16 -8 -28 -4 -22 6 -22 6 -2 -9 11 -9 20 -15 20 -14
1 1 7 10 14 20 7 9 11 17 8 17 -3 0 -9 -5 -12 -10z"/>
<path d="M390 31 c0 -5 7 -12 16 -15 14 -5 15 -4 4 9 -14 17 -20 19 -20 6z"/>
<path d="M670 29 c0 -5 5 -7 10 -4 6 3 10 8 10 11 0 2 -4 4 -10 4 -5 0 -10 -5
-10 -11z"/>
</g>
</svg>
